# xmcd
#
# Track frame offsets:
#	180
#	12050
#	24641
#	38294
#	50531
#	62319
#	75547
#	88091
#	98192
#	111089
#	123265
#	135866
#	147691
#	160145
#	171837
#	184414
#
# Disc length: 2599 seconds
#
# Revision: 1
# Processed by: cddbd v1.5.2PL0 Copyright (c) Steve Scherf et al.
# Submitted via: audiograbber 1.83.01
#
DISCID=c50a2510
DTITLE=Various Artist - Country Legends Vol.3 - CD1
DYEAR=2005
DGENRE=Country
TTITLE0=BILL MOUNCE - I´ve Been Drafted
TTITLE1=ELMER CHRISTIAN - A Rainy Sunday Night
TTITLE2=BOB WILLS - Faded Love
TTITLE3=SPADE COOLEY - Boggs Boogie
TTITLE4=HAWKSHAW HAWKINS - Dog House Boogie
TTITLE5=PAUL HOWARD - Cotton Picker´s Special
TTITLE6=BILL HALEY - Candy And Women
TTITLE7=ANN JONES - Give Me A Hundred Reasons
TTITLE8=JIMMIE REVARD - Holdin´ The Sack
TTITLE9=LEON PAYNE - I Love You Because
TTITLE10=BILL HALEY - Behind The Eight Ball
TTITLE11=JESSE JAMES - Darling I Don´t Understand
TTITLE12="TENNESSEE" ERNIE FORD - Stack - O - Lee
TTITLE13="TENNESSEE" ERNIE FORD - Ocean Of Tears
TTITLE14=CARL SMITH - Let Old Mother Nature
TTITLE15=HANK WILLIAMS - I Can´t Help It
EXTD=
EXTT0=
EXTT1=
EXTT2=
EXTT3=
EXTT4=
EXTT5=
EXTT6=
EXTT7=
EXTT8=
EXTT9=
EXTT10=
EXTT11=
EXTT12=
EXTT13=
EXTT14=
EXTT15=
PLAYORDER=
